<svg width="20" height="20" viewBox="0 0 20 20" fill="none" xmlns="http://www.w3.org/2000/svg">
<path d="M2.5 5H4.16667H17.5" stroke="#FF3838" stroke-linecap="round" stroke-linejoin="round"/>
<path d="M15.8337 5.00008V16.6667C15.8337 17.1088 15.6581 17.5327 15.3455 17.8453C15.0329 18.1578 14.609 18.3334 14.167 18.3334H5.83366C5.39163 18.3334 4.96771 18.1578 4.65515 17.8453C4.34259 17.5327 4.16699 17.1088 4.16699 16.6667V5.00008M6.66699 5.00008V3.33341C6.66699 2.89139 6.84259 2.46746 7.15515 2.1549C7.46771 1.84234 7.89163 1.66675 8.33366 1.66675H11.667C12.109 1.66675 12.5329 1.84234 12.8455 2.1549C13.1581 2.46746 13.3337 2.89139 13.3337 3.33341V5.00008" stroke="#FF3838" stroke-linecap="round" stroke-linejoin="round"/>
<path d="M8.33301 9.16675V14.1667" stroke="#FF3838" stroke-linecap="round" stroke-linejoin="round"/>
<path d="M11.667 9.16675V14.1667" stroke="#FF3838" stroke-linecap="round" stroke-linejoin="round"/>
</svg>
